<svg xmlns="http://www.w3.org/2000/svg" xmlns:xlink="http://www.w3.org/1999/xlink" viewBox="0 0 792 1224"><defs><style>.cls-1{fill:#231f20;}.cls-2{fill:url(#linear-gradient);}.cls-3{fill:url(#linear-gradient-2);}.cls-4{fill:url(#linear-gradient-3);}.cls-5{fill:url(#linear-gradient-4);}.cls-6{fill:url(#linear-gradient-5);}.cls-7{fill:none;stroke-miterlimit:10;stroke-width:21px;stroke:url(#linear-gradient-6);}</style><linearGradient id="linear-gradient" x1="200" y1="440" x2="373" y2="440" gradientUnits="userSpaceOnUse"><stop offset="0" stop-color="#d3b45a"/><stop offset="0.09" stop-color="#e1bb50"/><stop offset="0.22" stop-color="#edc248"/><stop offset="0.34" stop-color="#f1c445"/><stop offset="0.43" stop-color="#eec245"/><stop offset="0.49" stop-color="#e6ba45"/><stop offset="0.54" stop-color="#d8ac45"/><stop offset="0.58" stop-color="#c49944"/><stop offset="0.62" stop-color="#aa8144"/><stop offset="0.63" stop-color="#a27944"/><stop offset="0.66" stop-color="#bb9352"/><stop offset="0.7" stop-color="#d2ab5f"/><stop offset="0.74" stop-color="#e4be69"/><stop offset="0.8" stop-color="#f1cb70"/><stop offset="0.86" stop-color="#f8d374"/><stop offset="1" stop-color="#fad575"/></linearGradient><linearGradient id="linear-gradient-2" x1="463.06" y1="432.66" x2="609.06" y2="432.66" xlink:href="#linear-gradient"/><linearGradient id="linear-gradient-3" x1="353.22" y1="694" x2="353.22" y2="694" xlink:href="#linear-gradient"/><linearGradient id="linear-gradient-4" x1="226.22" y1="691.78" x2="358.72" y2="691.78" xlink:href="#linear-gradient"/><linearGradient id="linear-gradient-5" x1="482.07" y1="700.16" x2="598.22" y2="700.16" xlink:href="#linear-gradient"/><linearGradient id="linear-gradient-6" x1="113.77" y1="560.93" x2="702.17" y2="560.93" xlink:href="#linear-gradient"/></defs><title>LOGO cuadrado girl letters</title><g id="Layer_5" data-name="Layer 5"><path class="cls-1" d="M381.47,462.63a1.07,1.07,0,0,0,.34.22S381.69,462.76,381.47,462.63Z"/><path class="cls-1" d="M375.42,455.33c-2-2.67-3.77-5-3.77-5C372.11,451.93,373.6,453.69,375.42,455.33Z"/><path class="cls-1" d="M583.93,487.71c-3.78-7.45-17.78-11.22-17.78-11.22s-44.89-9.47-66.58-8.89-28.68-5.3-28.68-5.3c.31-8-2.3-27.08-2.3-27.08-15-36.43-32.2-59.8-34.51-65.7s-10.22-13.36-10.22-13.36A48.86,48.86,0,0,0,395.68,350,97,97,0,0,1,367,348.56c-16.49-8.28-15.24-5.89-25-8s-13-5.21-17.28-7.68-6,.39-6,.39l-7.9,5.46c-1.91,3.43-7.78,3-7.78,3-.83.06-1.93,11.68-1.93,11.68-6.17,6.59-7,16.75-7,16.75-2.07-.07-7.29,8.51-7.29,8.51-1.54,4.85,2.6,5,2.12,10.39s8.94,17,8.94,17c-.29,5.18-27.63,25.72-27.63,25.72-1.46-.32-14,19.06-14,19.06-1.29,8.75-24.45,23.87-24.45,23.87,8.86-.17.26,7.2.26,7.2,1.91.7,20.16-16.78,22.89-19.22a10.89,10.89,0,0,1,8.9-2.85c2.91.43,2.67,3.13,2.64,8.91s2.81,8.48,2.81,8.48c1.4-.71,2.21-10.46,1.74-11.46s1.66-6.23,1.66-6.23a25.43,25.43,0,0,0,2.67-13.92c-.14-2.19,3.52-5.18,3.52-5.18,27.57-11.69,34.52-19,34.52-19,3.82-.53,1.92-.13,6.37.68S334,438.44,334,438.44c-3.39,3-6.41,19.94-9.3,30.58S327,482.63,327,482.63l1.51-10.55c1.52-10.55,9.83-9.72,9.83-9.72,1.24,6.52,3.18,6.67,3.18,6.67,1.3-1.18-1.26-10.92-1.86-11.7s-.95-10.39-.08-14,6.85-4.57,6.85-4.57c6.4,13.89,21.58,19,25.76,19.79,3.57.71,8.05,3.35,9.29,4.11a70.5,70.5,0,0,1-6.05-7.3c-1.82-1.64-3.31-3.4-3.77-5,0,0,1.73,2.36,3.77,5a58.05,58.05,0,0,0,9.35,6.5c.48-1.13-5.1-6.55-5.1-6.55.94-2.53-3.87-8.82-3.87-8.82,3.38,1.15,9.95,9.26,9.95,9.26s-4.18-9.36-8.15-11.3-8.1-14.61-6.08-13.09a43.31,43.31,0,0,1,4.08,3.59c-.53-8.22-7.85-15.17-7.85-15.17s-4.11-8.26-2.78-8.9,4.86-9.94,4.86-9.94c5.42-1.17,11.11,1.76,11.11,1.76,9.73,1.57,29.62,15.68,34,23.92s-.65,32.5-.65,32.5c.9,9.57-4.8,10.77-1.9,30.11s9.83,15.86,13.92,23.85,2.39,24.05,1,28,3.16,27.57.19,45.37S419.09,618,413,625.31s-19.09,57.62-18.08,60.58-4.14,16.77-5.53,20.71S379,712.22,379,712.22c-6.7,7-2.48,4.29-3.15,15.06s-4.12,12.92-5.14,22.61,6.44,23,10.31,23.26,8.53-12.65,8.68-14.59,6.32-21.31,8.11-23.35,6.42-15.55,6.42-15.55,9.17-36.9,15.62-43.36,17.93-37.47,18.08-39.41,6.6-16.93,6.6-16.93c8.5-13.2,21.26-24.2,24.32-28s31.51-27.34,31.51-27.34,30.28-20.94,41.79-25.81,23.07-17.45,34-23.38,11.62-20.28,11.62-20.28Zm-55.15,27.92c-1.67-.31-23.58,18-23.84,20.52s-19.55,16.53-19.55,16.53c-10,11-12.78,6.6-16.14,5.58s-3.61-4.71-1.77-8.13,4.41-27.52,3.84-30,3.1-3.09,3.1-3.09c5.47,1.71,51.52-7.05,55.27-6.46S530.45,515.93,528.78,515.63Z"/></g><g id="Layer_4" data-name="Layer 4"><path class="cls-2" d="M284,469.3l38.53-36.85L363,534l10,12.67L288.67,330.33,244.19,436.82l-.57,1.12L241,443.67l1.31,1,2.38,1.85,2,1.62,26.89,21.41L217,524.33l25.58-64.16-5.25-4.84L200,549.67,279.1,474l93.23,74-10.66-15.33Zm-5.5-4.49-29-23.62,38.79-94.52,31.25,78.38Z"/><path class="cls-3" d="M603.4,399.4l-39.79,34.25L464.06,323.9l.15.76-.15-.42-1-2s2.34,149,3,152.66c.64,3.49-1.44,18.14,19.31,48.26,2.35,3.42,6,6.08,9,8.36,7.78,5.92,25.6,12.78,45.66,11.38,28.67-2,47.34-6.33,57.67-31.66s11.33-111.67,11.33-111.67Zm-.66,10.18c-.94,14-2.79,39.92-5,61.7l-29.41-32.43Zm-107.4,82.84c-1.9-2.86-8-12.76-8.61-22.18L485.4,356.69l73.81,80.75ZM469.73,340.57l-.57-1.64,14.95,16.36-6.05-6.05,1.5,123.83s1.8,14.05,9.77,24.52l-7.76,6.68a97.46,97.46,0,0,1-9.51-30.7ZM542,535.48c-1,.06-2.08.14-3.11.27-4.83.6-25.5,1.15-43.17-13.18,0,0-5.24-3.72-10.92-12.67l79.11-67.3,33,36.14c-1.61,14.43-3.35,25.89-5.05,28.83C591.9,507.57,585.32,533.17,542,535.48Z"/><path class="cls-4" d="M353.22,692.19h0v0Z"/><path class="cls-5" d="M352.22,732.78v33c-.5,34-33,35.75-33,35.75H239.55l119-105s.34-66,0-91.67-28.33-28-28.33-28l-66-.3v0h-7l.33.81V776.19l0,1.09-23.33,20.8,1-221.55h-7.33V804.19l-1.67,1.67,1.67-1.38v2.38h.16L228,807h97.75s32.5-1.75,33-35.75v-39Zm-88-150.56,60.33.31s28,2.33,28.34,28c.28,21.67.32,67.83.33,81.67h0v0l-89,79.21Z"/><path class="cls-6" d="M598.21,791.19V754.86c-1.34-18.67-13.34-27-13.34-27l-65.66-36.33c-9-3-9-28.34-9-28.34l.37-.15,57.63,31.49.66-8.34-67.33-34.66c-11.67-4-11.67-20-12.67-40s20.67-17,20.67-17h52c32-1.67,25.33,29.66,25.33,29.66h7.34s10.33-38-35-38H508.87s-29-2.66-26.66,27.34.5,34.83,12.16,42.5l5.16,2.18c-.69,15.44,2.47,24.51,5.36,31.21,2,4.65,3.61,8.42,8.14,10.67l54.51,27.1c25,12,22,34.67,22,34.67l-.33,25.67c2.66,17.33-7.34,16.33-7.34,16.33l-70.66,1c-16.34,0-20-17.67-20-17.67l-1-47-7.34-.33.34,44.33c-.34,26.67,26,30,26,30h80.66C598.88,814.19,598.21,791.19,598.21,791.19Z"/><rect class="cls-7" x="124.27" y="280.61" width="567.4" height="560.64"/></g></svg>